# xmcd
#
# Track frame offsets:
#	150
#	23718
#	36436
#	58466
#	103739
#	127335
#
# Disc length: 2000 seconds
#
# Revision: 1
# Processed by: cddbd v1.5.1PL2 Copyright (c) Steve Scherf et al.
# Submitted via: EasyCDDAExtractor 9.0.0.1
#
DISCID=5a07ce06
DTITLE=Dio - Sports Arena Toledo 12-01-85 Disc 2
DYEAR=1985
DGENRE=Hard Rock
TTITLE0=The Last In Line
TTITLE1=Heaven and Hell Reprise
TTITLE2=Rainbow In The Dark
TTITLE3=Man On The Silver Mountain - Long Live Rock and Roll
TTITLE4=The Mob Rules
TTITLE5=We Rock
EXTD=
EXTT0=
EXTT1=
EXTT2=
EXTT3=
EXTT4=
EXTT5=
PLAYORDER=
